<svg xmlns="http://www.w3.org/2000/svg" data-name="Layer 1" width="864.731" height="682.242"><path d="M522.143 301H324.01a20.73 20.73 0 0 1-20.706-20.706V21.705A20.73 20.73 0 0 1 324.01 1h198.133a20.73 20.73 0 0 1 20.706 20.705v258.589A20.73 20.73 0 0 1 522.143 301Z" fill="#f0f0f0"/><path d="M522.143 302H324.01a21.73 21.73 0 0 1-21.706-21.706V21.706A21.73 21.73 0 0 1 324.01 0h198.133a21.73 21.73 0 0 1 21.706 21.706v258.587A21.73 21.73 0 0 1 522.143 302ZM324.01 2a19.728 19.728 0 0 0-19.706 19.706v258.587A19.728 19.728 0 0 0 324.01 300h198.133a19.728 19.728 0 0 0 19.706-19.706V21.706A19.728 19.728 0 0 0 522.143 2Z" fill="#6c63ff"/><path d="M844.025 301H645.89a20.73 20.73 0 0 1-20.705-20.706V21.705A20.73 20.73 0 0 1 645.89 1h198.134a20.73 20.73 0 0 1 20.706 20.705v258.589A20.73 20.73 0 0 1 844.025 301Z" fill="#f0f0f0"/><circle cx="419.571" cy="297.192" r="35.811" fill="#6c63ff"/><path d="M414.685 315.83a3.982 3.982 0 0 1-3.186-1.594l-9.77-13.026a3.983 3.983 0 1 1 6.374-4.78l6.391 8.521 16.417-24.624a3.984 3.984 0 0 1 6.629 4.42L418 314.056a3.985 3.985 0 0 1-3.204 1.773 6.29 6.29 0 0 1-.11.001Z" fill="#fff"/><path d="M388.5 439.29H8.5a8.51 8.51 0 0 1-8.5-8.5v-344a8.51 8.51 0 0 1 8.5-8.5h380a8.51 8.51 0 0 1 8.5 8.5v344a8.51 8.51 0 0 1-8.5 8.5Z" fill="#3f3d56"/><path d="M380.5 431.29h-364a8.51 8.51 0 0 1-8.5-8.5v-328a8.51 8.51 0 0 1 8.5-8.5h364a8.51 8.51 0 0 1 8.5 8.5v328a8.51 8.51 0 0 1-8.5 8.5Z" fill="#fff"/><path d="M34.994 121.925q64.256-1.117 128.525-.321 64.26.8 128.478 3.524 36.035 1.528 72.041 3.661c1.928.115 1.922-2.886 0-3q-64.153-3.796-128.4-5.68-64.238-1.88-128.513-1.838-36.068.024-72.131.654c-1.929.033-1.935 3.033 0 3ZM333.53 103.114l18.73-1.394c1.914-.143 1.93-3.144 0-3l-18.73 1.394c-1.914.142-1.93 3.144 0 3ZM333.53 121.114l18.73-1.394c1.914-.143 1.93-3.144 0-3l-18.73 1.394c-1.914.142-1.93 3.144 0 3ZM332.12 112.894l26.632 2.42c1.922.174 1.91-2.827 0-3l-26.632-2.42c-1.922-.175-1.91 2.826 0 3ZM46.08 99.08a6.636 6.636 0 0 0-6.134 4.005 5.974 5.974 0 0 0 1.375 7.096 7.102 7.102 0 0 0 6.729 1.367 6.003 6.003 0 0 0 4.023-5.643 6.707 6.707 0 0 0-4.179-6.469 1.506 1.506 0 0 0-1.845 1.048 1.543 1.543 0 0 0 1.048 1.845c.261.101-.239-.129.005.004.1.055.203.105.301.163.084.05.164.104.246.157.28.183-.137-.134.042.03.155.143.31.282.45.439.053.06.262.225.1.11-.124-.09-.048-.069 0 .002.036.054.075.107.11.16a5.346 5.346 0 0 1 .32.551c.021.044.041.089.064.133.042.081.103.103.004 0-.095-.097-.034-.09 0 .003.022.062.046.124.067.186a5.78 5.78 0 0 1 .177.617c.022.097.04.194.059.29.067.345-.01-.213.006.043.014.213.03.425.026.639q-.003.147-.013.294l-.012.146c-.016.236-.016-.086.017-.108a2.77 2.77 0 0 0-.136.617c-.027.094-.059.185-.089.277-.104.322.098-.175-.013.045a5.483 5.483 0 0 1-.306.55c-.05.074-.233.241-.083.125.164-.127-.085.091-.139.147q-.102.108-.212.209a1.702 1.702 0 0 1-.15.13c-.009-.006.251-.175.111-.085-.178.113-.347.235-.535.334-.021.012-.262.123-.26.127-.01-.04.308-.113.09-.042-.047.015-.092.033-.138.048a4.9 4.9 0 0 1-.61.163c-.046.01-.096.014-.143.026-.155.04.148-.024.157-.018a1.308 1.308 0 0 0-.341.03 5.581 5.581 0 0 1-.639 0c-.05-.003-.098-.008-.148-.01-.114-.007-.198-.09-.046 0 .118.069.108.018.004 0-.049-.01-.098-.017-.146-.027a5.824 5.824 0 0 1-.624-.152c-.11-.034-.219-.073-.327-.111a.87.87 0 0 1-.138-.053c-.001-.013.28.134.132.054-.188-.1-.381-.186-.564-.296-.098-.059-.192-.123-.287-.186a.923.923 0 0 1-.119-.085c.004-.013.233.2.113.085-.153-.145-.316-.275-.46-.43l-.097-.107-.032-.037q-.122-.149-.004.002c.08.023.076.11 0-.003l-.082-.12a3.134 3.134 0 0 1-.31-.554c.007-.005.13.361.036.085-.018-.053-.038-.104-.055-.156q-.052-.156-.091-.316c-.026-.105-.04-.213-.065-.318-.045-.177.025.14.017.131-.025-.024-.014-.178-.016-.214-.012-.236.015-.464.02-.698.002-.181-.016.141-.02.132a.508.508 0 0 1 .029-.16c.027-.123.052-.246.085-.368q.058-.21.132-.414c.018-.051.041-.101.058-.153.063-.188-.125.228-.021.058.143-.234.249-.487.4-.718.036-.054.255-.36.139-.205-.116.153.118-.137.163-.187.184-.205.4-.373.59-.569.113-.116-.078.057-.09.065.06-.042.117-.086.177-.127q.156-.107.32-.203c.123-.073.262-.126.382-.203.14-.09-.108.04-.113.043a1.116 1.116 0 0 1 .201-.077c.117-.041.622-.259.728-.19-.005-.004-.384.03-.078.01.073-.005.145-.012.217-.015.147-.006.293-.002.44.005a1.51 1.51 0 0 0 1.5-1.5 1.533 1.533 0 0 0-1.5-1.5ZM67.08 99.08a6.636 6.636 0 0 0-6.134 4.005 5.974 5.974 0 0 0 1.375 7.096 7.102 7.102 0 0 0 6.729 1.367 6.003 6.003 0 0 0 4.023-5.643 6.707 6.707 0 0 0-4.179-6.469 1.506 1.506 0 0 0-1.845 1.048 1.543 1.543 0 0 0 1.048 1.845c.261.101-.239-.129.005.004.1.055.203.105.301.163.084.05.164.104.246.157.28.183-.137-.134.042.03.155.143.31.282.45.439.053.06.262.225.1.11-.124-.09-.048-.069 0 .002.036.054.075.107.11.16a5.346 5.346 0 0 1 .32.551c.021.044.041.089.064.133.042.081.103.103.004 0-.095-.097-.034-.09 0 .003.022.062.046.124.067.186a5.78 5.78 0 0 1 .177.617c.022.097.04.194.059.29.067.345-.01-.213.006.043.014.213.03.425.026.639q-.003.147-.013.294l-.012.146c-.016.236-.016-.086.017-.108a2.77 2.77 0 0 0-.136.617c-.027.094-.059.185-.089.277-.104.322.098-.175-.013.045a5.483 5.483 0 0 1-.306.55c-.05.074-.233.241-.083.125.164-.127-.085.091-.139.147q-.102.108-.212.209a1.702 1.702 0 0 1-.15.13c-.009-.006.252-.175.111-.085-.178.113-.347.235-.535.334-.021.012-.262.123-.26.127-.01-.04.308-.113.09-.042-.047.015-.092.033-.138.048a4.9 4.9 0 0 1-.61.163c-.046.01-.096.014-.143.026-.155.04.148-.024.157-.018a1.308 1.308 0 0 0-.341.03 5.581 5.581 0 0 1-.639 0c-.05-.003-.098-.008-.148-.01-.114-.007-.198-.09-.046 0 .118.069.108.018.004 0-.049-.01-.098-.017-.146-.027a5.824 5.824 0 0 1-.624-.152c-.11-.034-.219-.073-.327-.111a.87.87 0 0 1-.138-.053c-.001-.013.28.134.132.054-.188-.1-.381-.186-.564-.296-.098-.059-.192-.123-.287-.186a.923.923 0 0 1-.119-.085c.004-.013.233.2.113.085-.153-.145-.316-.275-.46-.43l-.097-.107-.032-.037q-.122-.149-.004.002c.08.023.076.11 0-.003l-.082-.12a3.134 3.134 0 0 1-.31-.554c.007-.005.13.361.036.085-.018-.053-.038-.104-.055-.156q-.052-.156-.091-.316c-.026-.105-.04-.213-.065-.318-.045-.177.025.14.017.131-.025-.024-.014-.178-.016-.214-.012-.236.015-.464.02-.698.002-.181-.016.141-.02.132a.508.508 0 0 1 .029-.16c.027-.123.052-.246.085-.368q.058-.21.132-.414c.018-.051.041-.101.058-.153.063-.188-.125.228-.021.058.143-.234.249-.487.4-.718.036-.054.255-.36.139-.205-.116.153.118-.137.163-.187.184-.205.4-.373.59-.569.113-.116-.078.057-.09.065.06-.042.117-.086.177-.127q.156-.107.32-.203c.123-.073.262-.126.382-.203.14-.09-.108.04-.113.043a1.116 1.116 0 0 1 .201-.077c.117-.041.622-.259.728-.19-.005-.004-.384.03-.078.01.073-.005.145-.012.217-.015.147-.006.293-.002.44.005a1.51 1.51 0 0 0 1.5-1.5 1.533 1.533 0 0 0-1.5-1.5ZM88.08 99.08a6.636 6.636 0 0 0-6.134 4.005 5.974 5.974 0 0 0 1.375 7.096 7.102 7.102 0 0 0 6.729 1.367 6.003 6.003 0 0 0 4.023-5.643 6.707 6.707 0 0 0-4.179-6.469 1.506 1.506 0 0 0-1.845 1.048 1.543 1.543 0 0 0 1.048 1.845c.261.101-.239-.129.005.004.1.055.203.105.301.163.084.05.164.104.246.157.28.183-.137-.134.042.03.155.143.31.282.45.439.053.06.262.225.1.11-.124-.09-.048-.069 0 .002.036.054.075.107.11.16a5.346 5.346 0 0 1 .319.551c.022.044.042.089.065.133.042.081.103.103.004 0-.095-.097-.034-.09 0 .003.021.062.046.124.067.186a5.78 5.78 0 0 1 .177.617c.022.097.04.194.059.29.067.345-.01-.213.006.043.014.213.03.425.026.639q-.003.147-.013.294l-.012.146c-.016.236-.016-.086.017-.108a2.77 2.77 0 0 0-.136.617c-.027.094-.059.185-.089.277-.104.322.098-.175-.013.045a5.483 5.483 0 0 1-.306.55c-.05.074-.233.241-.083.125.164-.127-.085.091-.139.147q-.102.108-.212.209a1.702 1.702 0 0 1-.15.13c-.009-.006.251-.175.111-.085-.178.113-.347.235-.535.334-.021.012-.262.123-.26.127-.011-.04.308-.113.09-.042-.047.015-.092.033-.138.048a4.9 4.9 0 0 1-.61.163c-.046.01-.096.014-.143.026-.155.04.148-.024.157-.018a1.308 1.308 0 0 0-.341.03 5.581 5.581 0 0 1-.64 0c-.048-.003-.097-.008-.147-.01-.114-.007-.198-.09-.046 0 .118.069.108.018.004 0-.049-.01-.098-.017-.146-.027a5.824 5.824 0 0 1-.624-.152c-.11-.034-.219-.073-.327-.111a.87.87 0 0 1-.138-.053c-.001-.013.28.134.132.054-.188-.1-.382-.186-.564-.296-.098-.059-.192-.123-.287-.186a.923.923 0 0 1-.119-.085c.004-.013.233.2.113.085-.153-.145-.316-.275-.46-.43l-.097-.107-.032-.037q-.122-.149-.004.002c.08.023.076.11 0-.003l-.082-.12a3.134 3.134 0 0 1-.31-.554c.007-.005.13.361.036.085-.018-.053-.038-.104-.055-.156q-.052-.156-.091-.316c-.026-.105-.04-.213-.065-.318-.045-.177.025.14.017.131-.025-.024-.014-.178-.016-.214-.012-.236.015-.464.02-.698.002-.181-.016.141-.02.132a.508.508 0 0 1 .029-.16c.027-.123.052-.246.085-.368q.058-.21.132-.414c.018-.051.041-.101.058-.153.063-.188-.125.228-.021.058.143-.234.249-.487.4-.718.036-.054.255-.36.139-.205-.116.153.118-.137.163-.187.184-.205.4-.373.59-.569.113-.116-.078.057-.09.065.06-.042.117-.086.177-.127q.156-.107.32-.203c.123-.073.262-.126.382-.203.14-.09-.108.04-.113.043a1.116 1.116 0 0 1 .201-.077c.117-.041.622-.259.728-.19-.005-.004-.384.03-.078.01.073-.005.145-.012.217-.015.147-.006.293-.002.44.005a1.51 1.51 0 0 0 1.5-1.5 1.533 1.533 0 0 0-1.5-1.5ZM44.253 177.862l1.338 51.204 1.337 51.205c.17 6.46-.744 15.273 5.81 19.058 2.734 1.579 6.003 1.925 9.1 2.01 4.114.115 8.24.03 12.355.035l51.25.055c6.733.007 14.13-.19 18.954-5.613 4.027-4.527 5.168-10.803 5.572-16.66.533-7.729.277-15.554.346-23.298l.23-25.734.23-25.733c.07-7.818.44-15.7.097-23.512-.262-5.961-1.27-12.327-5.266-17.011-4.553-5.337-11.752-6.057-18.318-6.267-16.98-.544-33.965-1.003-50.948-1.504-3.906-.115-7.825-.325-11.734-.273a30.363 30.363 0 0 0-10.236 1.568c-5.49 2.055-9.78 6.987-9.589 13.102a9.099 9.099 0 0 0 3.103 6.756c1.465 1.24 3.598-.872 2.121-2.121-4.002-3.386-2.064-9.73 1.435-12.735 5.069-4.354 13.016-3.647 19.197-3.465l48.108 1.419c3.73.11 7.472.147 11.199.366 3.326.196 6.8.628 9.778 2.23 5.149 2.77 7.158 8.454 7.835 13.95.85 6.917.338 14.054.276 21l-.219 24.485-.433 48.47c-.053 5.895.038 11.98-1.945 17.616a14.869 14.869 0 0 1-4.51 6.723 16.23 16.23 0 0 1-9.029 3.087c-3.651.295-7.344.152-11.004.148l-12.5-.013-24-.025-12.5-.014c-3.653-.004-7.332.124-10.98-.076-2.8-.154-5.924-.638-7.987-2.721-2.31-2.333-2.525-5.936-2.631-9.03-1.105-32.22-1.687-64.466-2.529-96.693l-.313-11.99c-.05-1.926-3.05-1.934-3 0ZM234.253 177.862l1.338 51.204 1.337 51.205c.17 6.46-.744 15.273 5.81 19.058 2.734 1.579 6.003 1.925 9.1 2.01 4.114.115 8.24.03 12.355.035l51.25.055c6.733.007 14.13-.19 18.954-5.613 4.027-4.527 5.168-10.803 5.572-16.66.533-7.729.277-15.554.346-23.298l.23-25.734.23-25.733c.07-7.818.44-15.7.097-23.512-.262-5.961-1.27-12.327-5.266-17.011-4.553-5.337-11.752-6.057-18.318-6.267-16.98-.544-33.965-1.003-50.948-1.504-3.906-.115-7.825-.325-11.734-.273a30.363 30.363 0 0 0-10.236 1.568c-5.49 2.055-9.78 6.987-9.589 13.102a9.099 9.099 0 0 0 3.103 6.756c1.465 1.24 3.598-.872 2.121-2.121-4.002-3.386-2.064-9.73 1.435-12.735 5.069-4.354 13.016-3.647 19.197-3.465l48.108 1.419c3.73.11 7.472.147 11.199.366 3.326.196 6.8.628 9.778 2.23 5.149 2.77 7.158 8.454 7.835 13.95.85 6.917.338 14.054.276 21l-.219 24.485-.433 48.47c-.053 5.895.038 11.98-1.945 17.616a14.869 14.869 0 0 1-4.51 6.723 16.23 16.23 0 0 1-9.029 3.087c-3.651.295-7.344.152-11.004.148l-12.5-.013-24-.025-12.5-.014c-3.653-.004-7.332.124-10.98-.076-2.8-.154-5.924-.638-7.987-2.721-2.31-2.333-2.525-5.936-2.631-9.03-1.105-32.22-1.687-64.466-2.529-96.693l-.313-11.99c-.05-1.926-3.05-1.934-3 0ZM96.036 312.514a8.486 8.486 0 0 0-8.044-2.093 9.809 9.809 0 0 0-6.363 5.464c-2.835 6.036-.295 13.072 3.62 18.001 3.64 4.58 9.552 7.599 15.312 5.194a13.632 13.632 0 0 0 8.218-13.625c-.726-6.702-6.173-12.13-12.569-13.767-1.871-.48-2.67 2.413-.797 2.892a14.044 14.044 0 0 1 9.834 8.694 10.523 10.523 0 0 1-3.628 11.77c-8.94 6.864-19.165-6.261-18.163-14.85a8.29 8.29 0 0 1 3.785-6.28 5.624 5.624 0 0 1 6.674.721 1.5 1.5 0 0 0 2.121-2.121Z" fill="#3f3d56"/><path d="M279.312 208.399c-3.5-1.204-7.564-2.4-11.187-.988-3.417 1.331-5.3 4.591-5.67 8.13-.412 3.945 1.265 7.709 3.044 11.125 2.139 4.109 4.345 8.185 6.518 12.276l7.52 14.15a1.51 1.51 0 0 0 2.795-.758 28.94 28.94 0 0 1 2.192-13.904c1.923-4.43 5.065-8.173 7.299-12.433 2.056-3.922 3.426-8.422 2.337-12.843-.88-3.575-3.481-7.054-7.228-7.886a8.204 8.204 0 0 0-9.553 4.72c-.708 1.796 2.192 2.575 2.893.797.998-2.534 4.49-3.31 6.819-2.34 3.033 1.262 4.472 4.888 4.468 7.969-.005 4.213-2.163 8.062-4.353 11.522-2.211 3.495-4.536 6.874-6.006 10.77a31.427 31.427 0 0 0-1.868 13.628l2.795-.757c-4.882-9.188-10.033-18.283-14.642-27.611-1.773-3.587-3.367-8.425-.65-12.003 2.786-3.669 8.104-1.901 11.68-.671 1.83.63 2.615-2.268.797-2.893ZM88.375 320.895l4.417 8.568a1.515 1.515 0 0 0 2.742-.359 33 33 0 0 1 7.97-15.904c1.3-1.423-.815-3.55-2.12-2.122a35.923 35.923 0 0 0-8.743 17.229l2.742-.358-4.418-8.568c-.885-1.717-3.474-.201-2.59 1.514Z" fill="#3f3d56"/><path d="m138.482 281.342-34.904 30.828a1.025 1.025 0 0 1-1.434-1.46l32.52-35.508Z" fill="#3f3d56"/><path fill="#ffb6b6" d="M185.013 656.522h13.718l6.529-52.914h-20.247v52.914z"/><path d="M177.772 680.29h9.838l1.756-9.287 4.498 9.288h26.093a5.865 5.865 0 0 0 3.333-10.692l-20.837-14.391v-9.39l-21.917 1.308Z" fill="#2f2e41"/><path fill="#ffb6b6" d="M302.519 656.522h13.718l6.529-52.914h-20.247v52.914z"/><path d="M295.278 680.29h9.838l1.756-9.287 4.498 9.288h26.093a5.865 5.865 0 0 0 3.332-10.692l-20.837-14.391v-9.39l-21.916 1.308ZM262.87 376.045l-69.576-7.73s-30.923 40.2-19.327 74.987v38.739l8.504 151.435 21.26 1.16 6.184-68.803 5.798-27.444 4.883-104.558 24.88 29.957 2.319 11.596 7.73 5.412 14.302 19.652 29.377 120.66 25.888.386s-13.906-125.237-15.452-125.237-40.2-84.264-40.2-84.264v-4.459l-1.545-8.683s3.865-3.092 2.319-4.638-3.093-6.185-3.093-6.185Z" fill="#2f2e41"/><path d="m237.745 268.203 13.915 15.461 19.327 6.958-10.823 63.391 3.59 18.229 5.3 20.038c-20.424 11.298-44.685-4.305-66.973-11.235l-21.93 9.689 1.16-26.671.595-67.198a18.834 18.834 0 0 1 20.278-18.612l14.688-10.823Z" fill="#6c63ff"/><path d="M111.513 296.56a7.882 7.882 0 0 0 9.963 6.841l15.954 23.024 5.423-13.508-15.98-19.792a7.925 7.925 0 0 0-15.36 3.435Z" fill="#ffb8b8"/><path d="M195.043 278.583s-20.765-.92-18.44 40.346l-8.833 18.128-17.768-16.582-.08-5.278-15.026-16.795-12.061 13.333 8.028 12.275 1.548 6.855 4.89 2.986 12.757 19.506 5.902 5.808s7.486 7.46 15.954 6.337a21.752 21.752 0 0 0 6.516-1.917c4.029-1.917 8.008-5.355 11.354-11.175a348.802 348.802 0 0 0 18.826-37.219Z" fill="#6c63ff"/><path d="M285.947 231.994a7.882 7.882 0 0 0 6.774 10.01l6.435 27.26 9.986-10.59-7.642-24.263a7.925 7.925 0 0 0-15.553-2.417Z" fill="#ffb8b8"/><path d="M241.755 286.947s10.98-17.649 43.705 7.598l19.947 2.961-3.634-24.03-4.308-3.05-5.36-21.888 17.817-2.412 5.586 13.561 4.78 5.152-.3 5.722 8.877 21.55 1.455 8.152s1.922 10.393-3.792 16.742a21.752 21.752 0 0 1-5.265 4.292c-3.859 2.239-8.945 3.578-15.637 3.048a348.802 348.802 0 0 1-41.343-5.511Z" fill="#6c63ff"/><circle cx="400.854" cy="342.132" r="26.778" transform="rotate(-28.663 110.823 629.737)" fill="#ffb6b6"/><path d="M262.594 229.022c-.08.03-.15.06-.23.09a3.75 3.75 0 0 1-.47.17 12.933 12.933 0 0 1-3.17.72 12.684 12.684 0 0 1-1.39.07 13.083 13.083 0 0 1-1.78-.12 12.591 12.591 0 0 1-1.94-.4 9.239 9.239 0 0 1-.89-.29 13.64 13.64 0 0 1-8.42-8.77v-.01a5.905 5.905 0 0 1-.17-.6 13.538 13.538 0 0 1-.44-3.45v-.02a13.538 13.538 0 0 1 2.55-7.91c1-1.41 2.151-1.644 1.51-3.26-2.047-5.158 6.39-9.348 11.36-7.07a4.87 4.87 0 0 1 .54-.02c3.35 0 4.58 4.95 6.57 7.74l-.058.018a2.57 2.57 0 0 0 .02 4.864q1.993.654 4.028 1.158c4.463 5.298-.708 20.752-7.62 17.09Z" fill="#2f2e41"/><path d="M260.094 243.192c-1.49 5.63-4.23 11.12-8.76 14.77-4.54 3.65-25.87 12.27-27.65 4.84 1.19 5.19.46 7.17-1.48 9.02-.33-.45-.68-.88-1.04-1.3a16.87 16.87 0 0 0-4.7-3.79 54.227 54.227 0 0 0 .65 9.36 31.64 31.64 0 0 0-2.28 2.32c-3.42-10.28-10.943-22.602-5.45-31.94 2.18-3.707.37-4.22-1.55-4.65-3.355-.752-5.17-14.53-5.96-17.88-.98-4.2-1.36-9.03 1.25-12.47s9.19-3.57 10.51.54l2.78-3.76c3.6-7.87 13.1-6.27 21.69-5.23 8.59 1.03 16.16 7.09 20.01 14.84 3.84 7.75 4.19 16.96 1.98 25.33Z" fill="#2f2e41"/><path d="M246.639 207.166a24.257 24.257 0 0 0 13.817 22.897c1.744.796 3.27-1.789 1.514-2.59a21.34 21.34 0 0 1-12.331-20.307c.105-1.929-2.896-1.923-3 0Z" fill="#ff6584"/><path d="M128.897 662.266a2.606 2.606 0 0 1-1.888-4.516l.178-.71-.07-.17c-2.4-5.72-17.707 10.225-18.368 15.6a20.7 20.7 0 0 0 .363 7.12 82.992 82.992 0 0 1-7.55-34.47 80.103 80.103 0 0 1 .497-8.936q.412-3.648 1.143-7.245a83.953 83.953 0 0 1 16.648-35.582c4.739.265 8.892-.457 9.293-9.64.07-1.634 1.283-3.048 1.55-4.658-.453.06-.913.097-1.365.126l-.43.023-.053.002a2.582 2.582 0 0 1-2.12-4.206l.586-.72c.296-.371.6-.735.897-1.106a1.285 1.285 0 0 0 .097-.11c.34-.424.682-.839 1.023-1.262a7.465 7.465 0 0 0-2.447-2.365c-3.42-2.003-8.136-.616-10.605 2.477-2.477 3.092-2.944 7.43-2.084 11.294a29.916 29.916 0 0 0 4.138 9.226c-.185.237-.378.467-.564.704a84.496 84.496 0 0 0-8.819 13.972c.7-5.473-7.866-25.236-11.18-29.422-3.98-5.028-12.14-2.834-12.84 3.54l-.02.186q.738.416 1.445.884a3.534 3.534 0 0 1-1.425 6.431l-.073.011c-6.587 9.406 14.53 33.885 19.816 28.389a86.245 86.245 0 0 0-4.643 21.847 81.8 81.8 0 0 0 .06 13.208l-.022-.156c-1.175-9.57-21.323-23.798-27.206-22.613-3.39.683-6.728.528-6.214 3.947l.026.163a23.746 23.746 0 0 1 2.662 1.283q.738.417 1.445.884a3.534 3.534 0 0 1-1.425 6.432l-.072.011-.148.023c-2.999 10.317 19.237 26.967 32.756 21.669h.007a86.22 86.22 0 0 0 5.792 16.908h20.69c.075-.23.142-.467.208-.697a23.508 23.508 0 0 1-5.725-.34c1.535-1.884 3.07-3.783 4.605-5.667a1.285 1.285 0 0 0 .097-.11c.779-.965 1.565-1.922 2.343-2.886a34.434 34.434 0 0 0-1.008-8.773Zm-23.693-46.609.01-.015-.01.03Zm-4.583 41.314-.178-.4c.007-.29.007-.579 0-.875 0-.082-.015-.163-.015-.245.067.512.126 1.024.2 1.535Z" fill="#6c63ff"/><path fill="#ccc" d="M66.754 680.242h292.118v2H66.754z"/><path d="m744.898 135.295-.024.021A12.658 12.658 0 0 0 726 152.144l-.024.022 16.87 18.922 18.923-16.87a12.676 12.676 0 1 0-16.87-18.923Z" fill="#6c63ff"/></svg>