<svg xmlns="http://www.w3.org/2000/svg" data-name="Layer 1" width="842.156" height="619.617"><path d="M540.958 38.724a38.553 38.553 0 0 1-10.308 26.302 32.862 32.862 0 0 1-1.574 1.592 585.043 585.043 0 0 0-62.822-42.178c.27-.684.558-1.358.873-2.024a38.717 38.717 0 0 1 73.831 16.308ZM572.36 117.52l-.036.405q-38.197-2.63-76.386-5.27c-18.395-1.269-37.428-2.708-53.682-11.415-6.171-3.302-12.18-7.71-19.178-8.015-8.68-.387-16.254 5.685-22.209 12.017-35.197 37.492-45.389 94.817-84.877 127.748A1254.032 1254.032 0 0 1 404.917 55.51c6.333-10.48 13.844-21.67 25.6-25.087 11.217-3.266 22.695 1.502 33.021 7.618a172.09 172.09 0 0 1 6.458 4.057q23.869 15.625 46.955 32.445 28.347 20.63 55.41 42.979Z" fill="#f2f2f2"/><path d="M654.719 197.037a603.254 603.254 0 0 0-94.223-104.586q-15.26-13.411-31.42-25.833a585.043 585.043 0 0 0-62.822-42.178q-10.74-6.234-21.732-11.973c-5.693-2.959-11.756-5.666-18.322-5.244a24.379 24.379 0 0 0-12.656 4.867c-8.069 5.891-13.412 15.093-17.81 23.864-3.85 7.69-7.44 15.534-11.1 23.333a667.098 667.098 0 0 1-4.723 9.921q-8.42 17.298-17.234 34.406-11.361 22.047-23.379 43.761-25.244 45.646-53.277 89.645-41.207 64.67-88.17 125.418c-3.84 4.956-5.424 6.108-9.319 11.028-.9 1.151-2.5-.468-1.61-1.61 32.481-41.054 60.762-79.84 89.276-123.754q32.247-49.666 60.95-101.536 9.216-16.637 18.045-33.48 14.288-27.268 27.587-55.05 3.508-7.313 6.945-14.68c7.277-15.588 17.873-38.768 38.337-38.453 6.017.09 11.603 2.527 16.874 5.226 5.37 2.761 10.641 5.694 15.904 8.67q3.157 1.782 6.287 3.617 12.4 7.205 24.43 15.013 20.078 13.02 39.093 27.596 9.027 6.922 17.783 14.159a605.857 605.857 0 0 1 98.127 102.822q5.168 6.868 10.12 13.889c.845 1.196-1.125 2.33-1.961 1.142ZM562.522 81.003c1.189-1.326 2.37-2.651 3.567-3.977 9.437-10.437 19.564-20.753 32.523-26.737a47.185 47.185 0 0 1 19.77-4.582 56.417 56.417 0 0 1 20.525 4.476c3.09 1.235 6.113 2.636 9.09 4.128 3.4 1.712 6.74 3.537 10.065 5.378q9.362 5.18 18.481 10.816 18.144 11.214 35.152 24.139 8.817 6.703 17.27 13.846 7.862 6.635 15.405 13.626c1.076.992 2.682-.614 1.606-1.606a364.815 364.815 0 0 0-4.006-3.674q-5.681-5.135-11.544-10.073-10.69-9.021-21.935-17.345-17.485-12.952-36.174-24.147-9.339-5.59-18.935-10.71a164.213 164.213 0 0 0-5.863-2.992 93.456 93.456 0 0 0-13.936-5.673 49.578 49.578 0 0 0-21.05-2.067 54.801 54.801 0 0 0-19.42 6.718c-12.724 7.112-22.593 18.11-32.197 28.842-.97 1.091.628 2.704 1.606 1.614Z" fill="#e4e4e4"/><path d="m301.8 189.16-30.492-11.152-15.139-5.537a154.815 154.815 0 0 0-14.946-5.148 23.58 23.58 0 0 0-13.528.173 31.18 31.18 0 0 0-10.552 6.54 85.63 85.63 0 0 0-8.654 9.243c-3.296 3.961-6.543 7.964-9.805 11.953q-20.194 24.696-40.124 49.607-19.93 24.91-39.592 50.033-19.711 25.183-39.151 50.577-2.381 3.111-4.759 6.225c-.875 1.147-2.85.016-1.962-1.147q19.583-25.65 39.44-51.089 19.905-25.5 40.085-50.784 20.18-25.283 40.632-50.347 5.095-6.245 10.208-12.475c2.874-3.504 5.717-7.046 8.87-10.307 5.788-5.986 13.02-11.276 21.675-11.42 5.09-.084 10.015 1.531 14.743 3.242 5.098 1.844 10.183 3.723 15.274 5.585l30.705 11.23 7.676 2.807c1.362.499.774 2.695-.604 2.192Z" fill="#e4e4e4"/><path d="M602.625 63.423c15.495-7.964 35.339-6.404 49.577 3.545a707.121 707.121 0 0 0-80.449 18.777c10.974-6.432 19.559-16.508 30.872-22.322ZM652.355 66.94l2.983 2.425a44.139 44.139 0 0 0-3.136-2.397l.153-.027ZM218.292 189.272c3.001-3.654 6.246-7.48 10.736-8.963l4.191.165a475.436 475.436 0 0 1-126.632 144.77l111.705-135.972Z" fill="#f2f2f2"/><path d="M574.5 200.83a32.217 32.217 0 0 1-40.61 20.63q-1.38-.45-2.7-1.02a32.202 32.202 0 0 1-17.93-39.58 31.88 31.88 0 0 1 3.22-6.94 32.206 32.206 0 0 1 58.02 26.91Z" fill="#a0616a"/><path d="M513.465 182.474c4.465 2.199 9.52-.989 13.427-4.159l-1.398 1.183c6.778 6.73 9.88 16.347 11.347 25.796 1.468 9.44 1.544 19.079 3.419 28.456 1.876 9.367 5.872 18.8 13.456 24.603 10.161 7.773 24.29 7.426 36.88 5.205.167-.032.324-.056.492-.089a76.722 76.722 0 0 1-3.729-30.455 69.759 69.759 0 0 0 16.464 27.62 160.14 160.14 0 0 0 24.408-8.61c5.106-2.287 10.61-5.43 12.076-10.83 1.47-5.36-1.756-11.03-6.111-14.469-4.355-3.439-9.725-5.264-14.702-7.733-4.968-2.458-9.874-5.94-11.82-11.14-4.489-11.96 8.788-25.497 3.789-37.261-2.465-5.785-8.617-8.981-14.404-11.456a213.117 213.117 0 0 0-27.175-9.48c-8.13-2.234-16.626-3.993-24.946-2.668-8.32 1.324-16.508 6.292-19.578 14.148-5.005 1.635-10.32 3.48-13.563 7.645-3.243 4.155-3.06 11.368 1.668 13.694Z" fill="#2f2e41"/><path d="M332.11 428.491c27.003-3.642 53.888 6.152 81.077 7.922 27.055 1.76 54.423-5.048 77.93-18.52 16.62-9.524 37.032-8.107 52.899 2.626q.599.405 1.213.782c13.104 8.02 29.286 8.563 44.646 8.876l151.585 3.085s36.36 8.618 41.6 26.778c5.241 18.16-6.37 37.817-22.418 47.803-16.049 9.986-35.517 12.458-54.324 14.343a1514.748 1514.748 0 0 1-363.239-7.431c-22.308-3.163-48.474-9.91-56.077-31.12-9.196-25.647 18.107-51.502 45.109-55.144Z" fill="#ccc"/><path d="m672.566 464.462-95.197-11.417a33.723 33.723 0 0 1 8.031-66.967l95.197 11.418a33.723 33.723 0 0 1-8.031 66.966Z" fill="#2f2e41"/><path d="m653.901 225.054 13.953 13.534 17.836 7.912s-5.26 108.605.811 116.33-.173 7.166.139 16.293 1.477 27.9 1.477 27.9c-49.519 19.064-89.74 14.91-118.525-17.799a8.089 8.089 0 0 1 5.47-8.54c6.382-2.464-3.369-18.71 1.834-20.606s.89-24.28.89-24.28l9.919-44.434-2.713-7.619 14-42.945 15.803-3.713 7.794-13.845Z" fill="#6c63ff"/><path d="M467.345 327.256a13.406 13.406 0 0 1 20.2 3.82l46.903-8.356-9.794 22.738-43.039 4.448a13.48 13.48 0 0 1-14.27-22.65Z" fill="#ffb6b6"/><path d="m497.842 350.16 85.96-6.757.172-.325c.197-.372 11.96-22.653 22.392-43.507a1200.83 1200.83 0 0 0 4.678-9.447q.97-1.98 1.89-3.887c4.142-8.576 7.442-15.826 8.731-19.634a39.57 39.57 0 0 0-.065-26.32l-.087-.205-.193-.112a20.08 20.08 0 0 0-24.812 3.89 142.237 142.237 0 0 0-31.448 57.17l-3.349 12.084-61.501 13.775Z" fill="#6c63ff"/><path fill="#a0616a" d="m339.287 575.857-13.614-6.511 18.701-56.905 20.093 9.61-25.18 53.806zM430.558 566.683c-.99.62-1.98 1.23-2.98 1.84a366.388 366.388 0 0 1-9.05 5.36v.03l-.06.01-.02.01-1.54.38-2.21-5.84-1.02-2.69-1.44-3.81-2.64-6.97-13.9-36.7 21.61-5.33.81 3.31h.01l.4 1.64 7.55 30.62 1.54 6.26.05.19.93 3.74.8 3.24.89 3.62Z"/><path d="M559.47 437.8c-1.37 2.2-2.77 4.39-4.18 6.56q-3.93 6.06-8.07 11.94c0 .01-.01.01-.02.02a28.234 28.234 0 0 1-5.3 3.87c-.08.06-.17.1-.25.15a19.54 19.54 0 0 1-4.46 1.79l-1.69.42c-2.02.48-4.02.89-6.01 1.25-3.54.63-7.04 1.08-10.52 1.36-.28.03-.56.05-.84.07-14.31 1.05-28.24-.64-42.78-3.41-7.18-1.36-14.51-2.99-22.1-4.68-2.48-.56-4.97-1.11-7.49-1.66-.19-.04-.39-.09-.59-.13-3.6-.79-7.26-1.57-11.01-2.34-4.72-.97-9.59-1.91-14.65-2.8l.36 7.13a53.663 53.663 0 0 0 3.38 16.03c2.16 6.32 3.87 11.32.26 21.73l-1.74 5.04a17.213 17.213 0 0 1-1.77 15.23l-.35.53 14.51 36.71.94 2.38h-7.43l-9.14.01h-15.49l-22.35-44.84-1.07-2.14v-.11l2.31-86.17c.03-.76.09-1.53.19-2.29a26.198 26.198 0 0 1 9.97-17.64 25.23 25.23 0 0 1 18.79-5.14l7.65.99 15.63 2.02 11.01 1.43.22.03 32.47 4.2 2.33-9.5.43-.16 13.67-5.01 47.28-17.33.12-.04 3.11-1.14.37.6c.11.18.22.36.32.54a92.68 92.68 0 0 1 7.47 17.34 272.213 272.213 0 0 1 7.85 29.97q.135.66.24 1.2l.03.11c.03.17.05.28.06.31 1.09 4.54.33 10.08-1.67 15.57Z" fill="#2f2e41"/><path d="M561.466 406.045c-.15-.64-.34-1.29-.54-1.92a136.814 136.814 0 0 0-5.54-14.02c-2.36-5.2-5.19-10.77-8.56-16.8q-2.445-4.38-5.26-9.11-1.41-2.37-2.93-4.83a2.543 2.543 0 0 0-.13-.22l-.29-.48-46.78 6.26-17.42 2.33-1.04 8.68-.25 2.15c-.01 0-.01 0 0 .01l-.7 5.86v.01l-.93 7.74-.08-.01-25.85-3.35-26.64-3.45-14.31-1.85a25.214 25.214 0 0 0-18.79 5.14 26.211 26.211 0 0 0-9.97 17.64c-.09.7-.15 1.42-.18 2.13l-13.5 31.99a206.396 206.396 0 0 0-15.26 60.04l-9.9 31.65 1.41.13 20.98 1.95 5.54.52 12.2-17.81a94.04 94.04 0 0 0 3.94-6.26 95.073 95.073 0 0 0 5.39-10.84l26.39-62.8q3.06.525 6.06 1 13.875 2.25 26.64 3.67c27.67 3.09 51.63 3.33 72.96.71q8.985-1.095 17.37-2.88 3.075-.645 6.07-1.39c.47-.11.93-.22 1.39-.34a25.52 25.52 0 0 0 17.85-16.68 26.038 26.038 0 0 0 .66-14.57ZM343.636 566.565l-14.73-7.06-2.31-1.11-3.69 9.06-25.76 5.67a6.112 6.112 0 0 0-1 11.63l25.17 10.27 7.99-7.19-1.96 9.65 9.48 3.87 10.39-33.07ZM434.16 552.611l.94 2.38h-.94v-2.38zM429.03 555.5l-15.434 5.347-2.423.837 3.753 9.034-14.315 22.154a6.112 6.112 0 0 0 7.473 8.968l25.111-10.413.619-10.73 5.397 8.235 9.46-3.92-15.887-30.81Z" fill="#2f2e41"/><path d="M368.056 158.554a10.962 10.962 0 0 0 13.849 9.526l22.162 32.037 7.558-18.78-22.204-27.544a11.022 11.022 0 0 0-21.365 4.76Z" fill="#a0616a"/><path d="m387.11 176.228 20.447-10.39 43.704 56.844 78.687 23.332a27.638 27.638 0 0 1 16.76 39.06 27.667 27.667 0 0 1-37.18 12.054l-82.34-42.021Z" fill="#3f3d56"/><path d="M557.504 259.028c-8.01-4.114-14.217-11.22-17-24l-13-1-43.081 42.207c-22.436 27.429-6.133 46.344-5.157 49.157L471.48 361.3l1.745 12.017.872 3.57 88.896 46.45-7.488-62.309 7.057-54.07c8.019-24.984 11.277-27.39-5.057-47.93Z" fill="#3f3d56"/><path d="M486.967 467.472a10.962 10.962 0 0 0 2.737-16.585l19.582-33.676-20.212 1.14-15.496 31.804a11.022 11.022 0 0 0 13.389 17.317Z" fill="#a0616a"/><path d="m494.868 442.713-18.094-14.094 32.88-63.718-12.32-81.144a27.638 27.638 0 0 1 28.234-31.77 27.667 27.667 0 0 1 26.712 28.532l-3.044 92.393Z" fill="#3f3d56"/><path fill="#ffb6b6" d="m570.068 576.009 11.854 10.816 47.362-40.575-17.496-15.964-41.72 45.723z"/><path d="m570.576 569.38 3.337 3.044 17.86 6.59 2.148 11.667h.001a20.14 20.14 0 0 1 1.302 28.453l-.442.483-38.222-34.876ZM659.87 449.776l-10.233-19.756c.855-20.005 18.207-35.635 38.13-33.64 11.096 1.11 21.28 7.716 24.897 26.363C721.965 470.693 609.74 565.6 609.74 565.6l-19.49-13.067-.437-13.057 11.426-6.472.422-11.106 10.84-4.658Z" fill="#2f2e41"/><circle cx="808.632" cy="327.431" r="30.591" transform="rotate(-84.509 642.013 355.809)" fill="#ffb6b6"/><path d="M607.422 158.696c3.205-7.045 16.156-10.9 36.433-9.66 20.277 1.241 23.112 25.55 23.112 25.55 12.44 12.24-18.274 38.858-19.522 37.673l1.136-5.447c1.881-9.021 6.835-15.725 2.318-25.75l-5.22-.441-10.072.95a2.874 2.874 0 0 1-1.955-5.19l.099-.07-.192-.37c-3.637 1.263-7.37 2.4-11.2 2.258-4.31-.16-8.83-2.316-10.52-6.283a8.818 8.818 0 0 1-.664-3.434c-6 1.753-9.327 8.622-9.327 8.622s2.37-11.364 5.574-18.408Z" fill="#2f2e41"/><path fill="#ffb6b6" d="m654.339 573.009-13.394 8.838-40.463-47.458 19.769-13.043 34.088 51.663z"/><path d="m666.322 583.739-43.188 28.496-.36-.546a20.14 20.14 0 0 1 5.717-27.902l3.94-11.19 18.669-3.728 3.77-2.487ZM593.12 447.86l12.666-20.59c2.271-19.894-12.434-38.036-32.425-39.17-11.133-.63-22.22 4.309-28.699 22.164-16.657 45.915 79.414 157.145 79.414 157.145l21.288-9.871 2.465-12.83-10.278-8.173 1.313-11.036-9.982-6.29Z" fill="#2f2e41"/><path d="M640.566 417.605a13.406 13.406 0 0 1 16.812-11.83l26.685-39.467 9.488 22.867-26.795 33.973a13.48 13.48 0 0 1-26.19-5.543Z" fill="#ffb6b6"/><path d="m678.244 411.686 55.043-66.372-.113-.349c-.13-.4-7.918-24.361-15.609-46.375-1.184-3.39-2.366-6.734-3.518-9.938q-.745-2.075-1.471-4.064c-3.266-8.946-6.168-16.364-8.001-19.943a39.57 39.57 0 0 0-18.925-18.29l-.208-.081-.216.06a20.08 20.08 0 0 0-14.496 20.51 142.237 142.237 0 0 0 19.1 62.39l6.335 10.821-32.968 53.715Z" fill="#6c63ff"/><ellipse cx="158.004" cy="538.528" rx="138.5" ry="43.308" fill="#f2f2f2"/><ellipse cx="158.004" cy="538.528" rx="111.56" ry="34.884" fill="#e6e6e6"/><path d="M216.326 513.808c-6.482-.875-12.936 1.476-19.463 1.901a33.759 33.759 0 0 1-28.571-13.055c1.975 3.114.02 7.502-3.126 9.427s-7.03 2.056-10.718 2.131l-36.388.74.687 3.14c-3.016-3.39-9.415-1.07-10.674 3.289s1.53 9.078 5.382 11.475c3.853 2.397 8.526 2.99 13.04 3.443a363.622 363.622 0 0 0 87.198-1.784c5.355-.759 11.636-2.379 13.461-7.47 2.208-6.157-4.346-12.363-10.828-13.237Z" fill="#3f3d56"/><path d="M240.33 514.836c-1.422-6.384-5.861-11.626-8.517-17.603a33.759 33.759 0 0 1 2.365-31.324c-2.238 2.931-7.032 2.614-9.927.329s-4.36-5.885-5.706-9.32l-13.283-33.885-2.708 1.731c2.137-4.002-2.252-9.205-6.778-8.877s-7.988 4.575-8.905 9.02.144 9.033 1.28 13.426a363.621 363.621 0 0 0 31.838 81.196c2.565 4.762 6.258 10.095 11.666 10.046 6.54-.058 10.097-8.355 8.675-14.739Z" fill="#3f3d56"/><path d="M237.215 416.27c-3.462-4.802-8.394-8.737-14.221-10.169a18.667 18.667 0 0 0-16.129 3.518 22.716 22.716 0 0 0-3.43 3.374 102.252 102.252 0 0 1-7.111 7.79 133.002 133.002 0 0 0-13.71-41.6 118.672 118.672 0 0 0-12.449-18.971c-3.917-4.87-8.165-10.02-14.352-11.94a16.834 16.834 0 0 0-14.029 1.994 22.413 22.413 0 0 0-9.051 12.572 28.409 28.409 0 0 0-1.106 9.022c.132 3.814 1.154 7.49 1.79 11.235a102.524 102.524 0 0 1 1.114 25.003c-1.174 15.296-5.785 30.614-14.335 43.434q-.783 1.174-1.613 2.316a73.173 73.173 0 0 0-14.852-24.426q-1.718-1.867-3.571-3.602a11.585 11.585 0 0 0-3.582-2.614c-5.12-1.982-8.798 3.82-8.285 8.325.372 3.268 2.51 5.24 4.523 7.633a66.462 66.462 0 0 1 6.114 8.593 60.778 60.778 0 0 1 7.727 19.898c1.453 7.679.777 15.355-.875 22.942-3.042 13.965-8.383 28.88-3.063 43.028 2.146 5.705 6.069 10.64 11.766 13.077a16.885 16.885 0 0 0 15.083-.56 14.898 14.898 0 0 0 1.683-1.144 7.778 7.778 0 0 0 .494.808c.62.866 1.607.764 2.57.801q1.548.06 3.096.066a90.13 90.13 0 0 0 11.93-.752 95.109 95.109 0 0 0 23.143-6.022 107.533 107.533 0 0 0 40.265-28.668 123.186 123.186 0 0 0 25.923-47.298 107.016 107.016 0 0 0 4.494-28.044 33.05 33.05 0 0 0-5.951-19.618Z" fill="#fd6584"/><path d="M94.938 533.077c6.481-.875 12.935 1.476 19.462 1.901a33.759 33.759 0 0 0 28.572-13.055c-1.976 3.114-.02 7.502 3.126 9.427s7.03 2.056 10.717 2.131l36.388.74-.687 3.14c3.016-3.39 9.416-1.07 10.674 3.289s-1.53 9.078-5.382 11.475-8.526 2.99-13.04 3.443a363.621 363.621 0 0 1-87.197-1.784c-5.355-.759-11.637-2.379-13.462-7.47-2.207-6.157 4.347-12.363 10.829-13.237Z" fill="#3f3d56"/><path d="M205.848 538.831c-2.254-6.14-7.348-10.748-10.772-16.32a33.497 33.497 0 0 1-4.82-18.183 12.451 12.451 0 0 0-6.469-11.365q-.157-.084-.31-.174c-3.17-1.882-5.1-5.256-6.89-8.481l-17.651-31.829s-5.906-6.751-10.349-5.827c-4.442.923-7.312 5.592-7.632 10.118s1.338 8.936 3.047 13.14a363.569 363.569 0 0 0 44.947 79.865 12.06 12.06 0 0 0 6.82 4.615c9.007 2.135 12.696-8.432 10.08-15.559Z" fill="#3f3d56"/><path d="M80.958 537.35c2.255-6.14 7.348-10.75 10.772-16.322a33.497 33.497 0 0 0 4.82-18.182 12.451 12.451 0 0 1 6.47-11.365q.156-.084.308-.174c3.172-1.882 5.102-5.256 6.89-8.481l17.652-31.83 2.456 2.075c-1.59-4.25 3.45-8.825 7.893-7.902s7.313 5.593 7.633 10.119-1.339 8.935-3.047 13.139a363.57 363.57 0 0 1-44.948 79.865 12.06 12.06 0 0 1-6.82 4.616c-9.007 2.135-12.696-8.433-10.079-15.559Z" fill="#3f3d56"/><path d="m108.643 409.895.165-.25a7.725 7.725 0 0 0 6.523-11.383ZM194.6 362.35a3.698 3.698 0 0 0-2.093.308c-1.45.792-1.565 2.966-.69 4.367a10.196 10.196 0 0 0 3.834 3.053 7.708 7.708 0 0 1 3.551 3.323c.64 1.523-.04 3.687-1.665 3.983l-1.197 4.313a9.863 9.863 0 0 0-1.74-19.347ZM228.144 374.73a27.689 27.689 0 0 1-.523 18.198 12.732 12.732 0 0 0 .523-18.198ZM227.345 393.686c.103-.248.18-.507.276-.758a12.417 12.417 0 0 1-2.03 1.566Z" fill="#fd6584"/><path d="m358.387 172.151 13.171-47.918a6.42 6.42 0 0 1 7.884-4.484l10.443 2.871a6.42 6.42 0 0 1 4.484 7.883l-13.172 47.919a6.42 6.42 0 0 1-7.883 4.483l-10.443-2.87a6.42 6.42 0 0 1-4.484-7.884Z" fill="#3f3d56"/><path d="M379.992 122.53a3.46 3.46 0 0 0-4.248 2.416l-13.172 47.918a3.46 3.46 0 0 0 2.416 4.248l10.444 2.87a3.46 3.46 0 0 0 4.248-2.416l13.172-47.918a3.46 3.46 0 0 0-2.417-4.248Z" fill="#6c63ff"/><path d="M51.843 384.047a2.168 2.168 0 0 1-1.57-3.758l.148-.59-.06-.142c-1.995-4.76-14.732 8.508-15.283 12.981a17.225 17.225 0 0 0 .302 5.924 69.058 69.058 0 0 1-6.282-28.682 66.654 66.654 0 0 1 .414-7.435q.342-3.036.95-6.03a69.858 69.858 0 0 1 13.854-29.607c3.942.22 7.398-.38 7.732-8.022.059-1.36 1.067-2.536 1.29-3.875-.377.05-.76.08-1.136.105l-.358.018-.044.002a2.148 2.148 0 0 1-1.764-3.5l.487-.6c.247-.308.5-.61.747-.919a1.07 1.07 0 0 0 .08-.092c.284-.352.568-.697.852-1.05a6.212 6.212 0 0 0-2.036-1.968c-2.845-1.666-6.77-.512-8.825 2.061-2.06 2.574-2.45 6.183-1.734 9.398a24.893 24.893 0 0 0 3.444 7.677c-.155.197-.315.389-.47.586a70.31 70.31 0 0 0-7.338 11.626c.583-4.554-6.546-20.998-9.302-24.482a6 6 0 0 0-10.686 2.946l-.016.154q.614.347 1.202.736a2.94 2.94 0 0 1-1.185 5.352l-.06.009c-5.482 7.826 12.09 28.195 16.488 23.622a71.764 71.764 0 0 0-3.863 18.179 68.066 68.066 0 0 0 .05 10.99l-.02-.13c-.976-7.962-17.742-19.802-22.637-18.816-2.82.569-5.598.44-5.17 3.284l.02.136a19.758 19.758 0 0 1 2.216 1.068q.614.347 1.203.736a2.941 2.941 0 0 1-1.186 5.352l-.06.009-.124.018c-2.495 8.585 16.008 22.44 27.257 18.031h.006a71.743 71.743 0 0 0 4.82 14.07h17.216c.062-.191.117-.389.173-.58a19.56 19.56 0 0 1-4.764-.284c1.277-1.567 2.555-3.147 3.832-4.715a1.07 1.07 0 0 0 .08-.092c.648-.802 1.302-1.598 1.95-2.4v-.002a28.653 28.653 0 0 0-.839-7.299Zm-19.715-38.783.01-.012-.01.024Zm-3.813 34.377-.148-.333c.006-.24.006-.481 0-.728 0-.068-.013-.136-.013-.204.056.426.105.852.167 1.278ZM790.312 415.047a28.653 28.653 0 0 0-.84 7.3c.649.803 1.303 1.599 1.95 2.4a1.07 1.07 0 0 0 .08.093c1.278 1.568 2.556 3.148 3.833 4.715a19.56 19.56 0 0 1-4.764.284c.056.191.111.389.173.58h17.216a71.743 71.743 0 0 0 4.82-14.07h.006c11.249 4.409 29.751-9.446 27.256-18.03l-.123-.02-.06-.008a2.941 2.941 0 0 1-1.186-5.352q.588-.39 1.203-.736a19.758 19.758 0 0 1 2.215-1.068l.021-.136c.428-2.845-2.35-2.715-5.17-3.284-4.896-.986-21.66 10.854-22.638 18.817l-.019.13a68.066 68.066 0 0 0 .05-10.991 71.764 71.764 0 0 0-3.863-18.18c4.398 4.574 21.97-15.795 16.488-23.621l-.06-.01a2.94 2.94 0 0 1-1.185-5.351q.587-.389 1.202-.736l-.016-.154a6 6 0 0 0-10.686-2.946c-2.757 3.484-9.885 19.928-9.302 24.482a70.31 70.31 0 0 0-7.339-11.626c-.154-.197-.315-.389-.469-.586a24.893 24.893 0 0 0 3.444-7.677c.715-3.215.327-6.825-1.734-9.398-2.055-2.573-5.98-3.727-8.825-2.06a6.212 6.212 0 0 0-2.036 1.968c.284.352.568.697.851 1.049a1.07 1.07 0 0 0 .08.092c.247.309.5.611.747.92l.488.6a2.148 2.148 0 0 1-1.764 3.5l-.044-.003-.358-.018a17.625 17.625 0 0 1-1.136-.105c.223 1.339 1.23 2.516 1.29 3.875.334 7.642 3.79 8.242 7.732 8.022a69.858 69.858 0 0 1 13.854 29.608q.61 2.99.95 6.029a66.654 66.654 0 0 1 .413 7.435 69.058 69.058 0 0 1-6.282 28.682 17.225 17.225 0 0 0 .303-5.924c-.55-4.473-13.288-17.74-15.284-12.981l-.059.141.149.591a2.168 2.168 0 0 1-1.572 3.758Zm19.716-38.77-.01-.025.01.012Zm3.807 34.377c.062-.426.111-.852.167-1.278 0 .068-.013.136-.013.204-.006.247-.006.488 0 .728l-.148.333Z" fill="#f2f2f2"/></svg>